<svg width="20" height="20" viewBox="0 0 20 20" fill="none" xmlns="http://www.w3.org/2000/svg">
<path fill-rule="evenodd" clip-rule="evenodd" d="M13.2257 14.9327C11.8498 15.9511 16.1284 11.5758 14.9109 13.239C14.9413 13.2366 14.8849 13.3288 14.6956 13.56C14.6956 13.56 17.9472 16.7896 19.5433 18.4333C20.0975 19.0325 19.0977 20.2285 18.4184 19.6041C16.973 18.2018 13.5528 14.7165 13.5475 14.7109L13.2257 14.9327Z" fill="black"/>
<path d="M8.44779 16.5658C10.54 16.5455 12.611 15.679 14.1004 14.2071C15.8692 12.459 16.78 9.87283 16.4623 7.40365C15.9179 3.17255 12.4396 0.301178 8.39579 0.301178C5.32332 0.301178 2.33738 2.22315 1.02763 5.01002C0.025008 7.14365 0.0229767 9.71968 1.02763 11.857C2.32804 14.6243 5.26523 16.5361 8.34338 16.5658C8.37832 16.5658 8.41326 16.5658 8.44779 16.5658ZM8.35191 15.2101C5.22745 15.1801 2.3122 12.7637 1.73248 9.66565C1.32379 7.48165 2.09526 5.11808 3.70238 3.56702C5.57845 1.75555 8.52741 1.14902 10.9795 2.17562C13.1733 3.09415 14.8154 5.22696 15.118 7.57671C15.3772 9.5909 14.6545 11.7018 13.2342 13.1557C11.9883 14.4314 10.241 15.1927 8.43926 15.2101C8.41001 15.2101 8.38116 15.2101 8.35191 15.2101Z" fill="black"/>
</svg>
